<svg width="539" height="168" viewBox="0 0 539 168" fill="none" xmlns="http://www.w3.org/2000/svg">
<g clip-path="url(#clip0_49_49)">
<path d="M68.0571 168H36.9206V70.8869H59.7034H90.0806C90.0806 70.8869 93.7659 70.5492 97.6749 68.5259L118.179 99.8815L159 168L124.066 167.324L87.0429 102.267H68.0571V168Z" fill="black"/>
<path d="M106.788 0.472203C118.179 4.29909 144 14.249 144 53.2832C144 73.5661 137.028 85.3519 130.33 91.9947L106.275 57.8755C106.604 56.4947 106.788 54.9689 106.788 53.2832C106.788 37.2103 90.0806 34.1488 90.0806 34.1488H59.7034H36.9206L26 0.472203H106.788Z" fill="black"/>
<path d="M214.615 128.74C214.615 131.62 214.48 134.095 214.21 136.165H177.76C178.21 142.645 179.38 147.145 181.27 149.665C183.25 152.095 186.085 153.31 189.775 153.31C192.205 153.31 194.545 152.86 196.795 151.96C199.045 150.97 201.475 149.485 204.085 147.505L212.455 158.575C205.795 165.055 197.74 168.295 188.29 168.295C178.21 168.295 170.56 165.01 165.34 158.44C160.12 151.78 157.51 142.51 157.51 130.63C157.51 118.75 159.985 109.345 164.935 102.415C169.975 95.485 177.13 92.02 186.4 92.02C195.22 92.02 202.105 95.17 207.055 101.47C212.095 107.68 214.615 116.77 214.615 128.74ZM194.77 122.935C194.77 116.815 194.14 112.405 192.88 109.705C191.71 106.915 189.595 105.52 186.535 105.52C183.835 105.52 181.765 106.87 180.325 109.57C178.975 112.18 178.12 116.95 177.76 123.88H194.77V122.935ZM290.448 92.02C295.218 92.02 298.998 93.865 301.788 97.555C304.668 101.245 306.108 106.195 306.108 112.405V166H286.128V114.43C286.128 112 285.813 110.245 285.183 109.165C284.553 107.995 283.608 107.41 282.348 107.41C279.828 107.41 277.263 110.065 274.653 115.375V166H254.943V114.43C254.943 109.75 253.683 107.41 251.163 107.41C248.553 107.41 245.943 110.065 243.333 115.375V166H223.488V94.315H241.173L242.388 102.955C246.978 95.665 252.603 92.02 259.263 92.02C262.503 92.02 265.293 93.01 267.633 94.99C270.063 96.97 271.908 99.805 273.168 103.495C277.848 95.845 283.608 92.02 290.448 92.02ZM338.136 94.315V166H317.751V94.315H338.136ZM327.741 57.055C331.251 57.055 334.041 58.18 336.111 60.43C338.271 62.59 339.351 65.38 339.351 68.8C339.351 72.13 338.271 74.92 336.111 77.17C333.951 79.33 331.161 80.41 327.741 80.41C324.321 80.41 321.531 79.33 319.371 77.17C317.211 74.92 316.131 72.13 316.131 68.8C316.131 65.38 317.211 62.59 319.371 60.43C321.531 58.18 324.321 57.055 327.741 57.055ZM386.902 92.02C392.032 92.02 396.037 93.865 398.917 97.555C401.887 101.245 403.372 106.195 403.372 112.405V166H382.987V114.565C382.987 109.885 381.682 107.545 379.072 107.545C376.462 107.545 373.627 110.425 370.567 116.185V166H350.182V94.315H367.867L369.352 102.82C371.692 99.22 374.257 96.52 377.047 94.72C379.837 92.92 383.122 92.02 386.902 92.02ZM459.056 94.315V108.76L432.326 150.475H459.596L457.976 166H410.186V151.555L436.916 109.705H412.481V94.315H459.056Z" fill="black"/>
</g>
<defs>
<clipPath id="clip0_49_49">
<rect width="539" height="168" fill="white"/>
</clipPath>
</defs>
</svg>
