<svg viewBox="0 0 2000 1400" xmlns="http://www.w3.org/2000/svg"><mask id="b" x="0" y="0" width="2000" height="1400"><path fill="url(#a)" d="M0 0h2000v1400H0z"/></mask><g style="transform-origin:center center" stroke="#4c4e72" stroke-width="1.6" mask="url(#b)"><path fill="none" d="M0 0h67v67H0zM67 0h67v67H67z"/><path fill="#4c4e7292" d="M134 0h67v67h-67z"/><path fill="#4c4e72b7" d="M201 0h67v67h-67z"/><path fill="none" d="M268 0h67v67h-67zM335 0h67v67h-67z"/><path fill="#4c4e7213" d="M402 0h67v67h-67z"/><path fill="none" d="M469 0h67v67h-67z"/><path fill="#4c4e7200" d="M536 0h67v67h-67z"/><path fill="none" d="M603 0h67v67h-67zM670 0h67v67h-67z"/><path fill="#4c4e72b7" d="M737 0h67v67h-67z"/><path fill="none" d="M804 0h67v67h-67zM871 0h67v67h-67z"/><path fill="#4c4e72cc" d="M938 0h67v67h-67z"/><path fill="#4c4e721e" d="M1005 0h67v67h-67z"/><path fill="#4c4e72af" d="M1072 0h67v67h-67z"/><path fill="#4c4e7280" d="M1139 0h67v67h-67z"/><path fill="none" d="M1206 0h67v67h-67zM1273 0h67v67h-67z"/><path fill="#4c4e727f" d="M1340 0h67v67h-67z"/><path fill="#4c4e72c2" d="M1407 0h67v67h-67z"/><path fill="#4c4e72f5" d="M1474 0h67v67h-67z"/><path fill="none" d="M1541 0h67v67h-67zM1608 0h67v67h-67zM1675 0h67v67h-67z"/><path fill="#4c4e7253" d="M1742 0h67v67h-67z"/><path fill="#4c4e7247" d="M1809 0h67v67h-67z"/><path fill="none" d="M1876 0h67v67h-67z"/><path fill="#4c4e72ef" d="M1943 0h67v67h-67z"/><path fill="none" d="M0 67h67v67H0z"/><path fill="#4c4e7225" d="M67 67h67v67H67z"/><path fill="none" d="M134 67h67v67h-67zM201 67h67v67h-67z"/><path fill="#4c4e723c" d="M268 67h67v67h-67z"/><path fill="none" d="M335 67h67v67h-67zM402 67h67v67h-67zM469 67h67v67h-67zM536 67h67v67h-67zM603 67h67v67h-67zM670 67h67v67h-67zM737 67h67v67h-67z"/><path fill="#4c4e72e8" d="M804 67h67v67h-67z"/><path fill="#4c4e7272" d="M871 67h67v67h-67z"/><path fill="#4c4e72ab" d="M938 67h67v67h-67z"/><path fill="none" d="M1005 67h67v67h-67zM1072 67h67v67h-67z"/><path fill="#4c4e7242" d="M1139 67h67v67h-67z"/><path fill="#4c4e725f" d="M1206 67h67v67h-67z"/><path fill="none" d="M1273 67h67v67h-67zM1340 67h67v67h-67z"/><path fill="#4c4e7200" d="M1407 67h67v67h-67z"/><path fill="none" d="M1474 67h67v67h-67zM1541 67h67v67h-67zM1608 67h67v67h-67z"/><path fill="#4c4e7223" d="M1675 67h67v67h-67z"/><path fill="none" d="M1742 67h67v67h-67z"/><path fill="#4c4e725c" d="M1809 67h67v67h-67z"/><path fill="none" d="M1876 67h67v67h-67zM1943 67h67v67h-67zM0 134h67v67H0zM67 134h67v67H67zM134 134h67v67h-67zM201 134h67v67h-67zM268 134h67v67h-67z"/><path fill="#4c4e72c8" d="M335 134h67v67h-67z"/><path fill="none" d="M402 134h67v67h-67z"/><path fill="#4c4e721c" d="M469 134h67v67h-67z"/><path fill="none" d="M536 134h67v67h-67zM603 134h67v67h-67zM670 134h67v67h-67z"/><path fill="#4c4e7211" d="M737 134h67v67h-67z"/><path fill="#4c4e7203" d="M804 134h67v67h-67z"/><path fill="#4c4e72d4" d="M871 134h67v67h-67z"/><path fill="none" d="M938 134h67v67h-67zM1005 134h67v67h-67zM1072 134h67v67h-67zM1139 134h67v67h-67zM1206 134h67v67h-67z"/><path fill="#4c4e7207" d="M1273 134h67v67h-67z"/><path fill="#4c4e72bf" d="M1340 134h67v67h-67z"/><path fill="none" d="M1407 134h67v67h-67zM1474 134h67v67h-67zM1541 134h67v67h-67zM1608 134h67v67h-67zM1675 134h67v67h-67z"/><path fill="#4c4e72f3" d="M1742 134h67v67h-67z"/><path fill="none" d="M1809 134h67v67h-67zM1876 134h67v67h-67z"/><path fill="#4c4e72d7" d="M1943 134h67v67h-67z"/><path fill="none" d="M0 201h67v67H0zM67 201h67v67H67zM134 201h67v67h-67zM201 201h67v67h-67zM268 201h67v67h-67zM335 201h67v67h-67zM402 201h67v67h-67zM469 201h67v67h-67z"/><path fill="#4c4e720d" d="M536 201h67v67h-67z"/><path fill="none" d="M603 201h67v67h-67zM670 201h67v67h-67zM737 201h67v67h-67zM804 201h67v67h-67zM871 201h67v67h-67zM938 201h67v67h-67zM1005 201h67v67h-67zM1072 201h67v67h-67zM1139 201h67v67h-67z"/><path fill="#4c4e7275" d="M1206 201h67v67h-67z"/><path fill="none" d="M1273 201h67v67h-67zM1340 201h67v67h-67z"/><path fill="#4c4e724a" d="M1407 201h67v67h-67z"/><path fill="none" d="M1474 201h67v67h-67zM1541 201h67v67h-67z"/><path fill="#4c4e72cb" d="M1608 201h67v67h-67z"/><path fill="none" d="M1675 201h67v67h-67z"/><path fill="#4c4e7262" d="M1742 201h67v67h-67z"/><path fill="none" d="M1809 201h67v67h-67z"/><path fill="#4c4e72d5" d="M1876 201h67v67h-67z"/><path fill="none" d="M1943 201h67v67h-67zM0 268h67v67H0zM67 268h67v67H67zM134 268h67v67h-67zM201 268h67v67h-67zM268 268h67v67h-67zM335 268h67v67h-67z"/><path fill="#4c4e72ea" d="M402 268h67v67h-67z"/><path fill="#4c4e7271" d="M469 268h67v67h-67z"/><path fill="none" d="M536 268h67v67h-67z"/><path fill="#4c4e726e" d="M603 268h67v67h-67z"/><path fill="#4c4e72dd" d="M670 268h67v67h-67z"/><path fill="#4c4e7211" d="M737 268h67v67h-67z"/><path fill="none" d="M804 268h67v67h-67zM871 268h67v67h-67zM938 268h67v67h-67zM1005 268h67v67h-67zM1072 268h67v67h-67zM1139 268h67v67h-67zM1206 268h67v67h-67zM1273 268h67v67h-67zM1340 268h67v67h-67zM1407 268h67v67h-67zM1474 268h67v67h-67zM1541 268h67v67h-67z"/><path fill="#4c4e7212" d="M1608 268h67v67h-67z"/><path fill="none" d="M1675 268h67v67h-67zM1742 268h67v67h-67zM1809 268h67v67h-67zM1876 268h67v67h-67zM1943 268h67v67h-67zM0 335h67v67H0z"/><path fill="#4c4e7203" d="M67 335h67v67H67z"/><path fill="#4c4e7251" d="M134 335h67v67h-67z"/><path fill="none" d="M201 335h67v67h-67zM268 335h67v67h-67zM335 335h67v67h-67zM402 335h67v67h-67zM469 335h67v67h-67zM536 335h67v67h-67zM603 335h67v67h-67zM670 335h67v67h-67zM737 335h67v67h-67zM804 335h67v67h-67z"/><path fill="#4c4e7266" d="M871 335h67v67h-67z"/><path fill="none" d="M938 335h67v67h-67zM1005 335h67v67h-67zM1072 335h67v67h-67z"/><path fill="#4c4e721f" d="M1139 335h67v67h-67z"/><path fill="#4c4e726d" d="M1206 335h67v67h-67z"/><path fill="none" d="M1273 335h67v67h-67zM1340 335h67v67h-67z"/><path fill="#4c4e72ed" d="M1407 335h67v67h-67z"/><path fill="none" d="M1474 335h67v67h-67zM1541 335h67v67h-67zM1608 335h67v67h-67zM1675 335h67v67h-67zM1742 335h67v67h-67zM1809 335h67v67h-67zM1876 335h67v67h-67z"/><path fill="#4c4e7201" d="M1943 335h67v67h-67z"/><path fill="none" d="M0 402h67v67H0zM67 402h67v67H67zM134 402h67v67h-67zM201 402h67v67h-67zM268 402h67v67h-67zM335 402h67v67h-67zM402 402h67v67h-67zM469 402h67v67h-67zM536 402h67v67h-67z"/><path fill="#4c4e72f9" d="M603 402h67v67h-67z"/><path fill="none" d="M670 402h67v67h-67z"/><path fill="#4c4e7212" d="M737 402h67v67h-67z"/><path fill="#4c4e72e4" d="M804 402h67v67h-67z"/><path fill="none" d="M871 402h67v67h-67z"/><path fill="#4c4e725d" d="M938 402h67v67h-67z"/><path fill="none" d="M1005 402h67v67h-67z"/><path fill="#4c4e722f" d="M1072 402h67v67h-67z"/><path fill="none" d="M1139 402h67v67h-67zM1206 402h67v67h-67zM1273 402h67v67h-67z"/><path fill="#4c4e7299" d="M1340 402h67v67h-67z"/><path fill="none" d="M1407 402h67v67h-67z"/><path fill="#4c4e7232" d="M1474 402h67v67h-67z"/><path fill="none" d="M1541 402h67v67h-67zM1608 402h67v67h-67zM1675 402h67v67h-67zM1742 402h67v67h-67zM1809 402h67v67h-67zM1876 402h67v67h-67zM1943 402h67v67h-67z"/><path fill="#4c4e72df" d="M0 469h67v67H0z"/><path fill="none" d="M67 469h67v67H67zM134 469h67v67h-67zM201 469h67v67h-67z"/><path fill="#4c4e72c2" d="M268 469h67v67h-67z"/><path fill="none" d="M335 469h67v67h-67zM402 469h67v67h-67zM469 469h67v67h-67zM536 469h67v67h-67zM603 469h67v67h-67zM670 469h67v67h-67zM737 469h67v67h-67zM804 469h67v67h-67z"/><path fill="#4c4e72ed" d="M871 469h67v67h-67z"/><path fill="none" d="M938 469h67v67h-67zM1005 469h67v67h-67z"/><path fill="#4c4e722e" d="M1072 469h67v67h-67z"/><path fill="none" d="M1139 469h67v67h-67zM1206 469h67v67h-67zM1273 469h67v67h-67zM1340 469h67v67h-67z"/><path fill="#4c4e7296" d="M1407 469h67v67h-67z"/><path fill="none" d="M1474 469h67v67h-67zM1541 469h67v67h-67zM1608 469h67v67h-67zM1675 469h67v67h-67zM1742 469h67v67h-67zM1809 469h67v67h-67zM1876 469h67v67h-67zM1943 469h67v67h-67zM0 536h67v67H0zM67 536h67v67H67zM134 536h67v67h-67zM201 536h67v67h-67zM268 536h67v67h-67zM335 536h67v67h-67zM402 536h67v67h-67zM469 536h67v67h-67zM536 536h67v67h-67zM603 536h67v67h-67z"/><path fill="#4c4e7204" d="M670 536h67v67h-67z"/><path fill="none" d="M737 536h67v67h-67zM804 536h67v67h-67zM871 536h67v67h-67zM938 536h67v67h-67z"/><path fill="#4c4e72d5" d="M1005 536h67v67h-67z"/><path fill="none" d="M1072 536h67v67h-67zM1139 536h67v67h-67zM1206 536h67v67h-67z"/><path fill="#4c4e721e" d="M1273 536h67v67h-67z"/><path fill="none" d="M1340 536h67v67h-67z"/><path fill="#4c4e72dd" d="M1407 536h67v67h-67z"/><path fill="none" d="M1474 536h67v67h-67z"/><path fill="#4c4e72d4" d="M1541 536h67v67h-67z"/><path fill="none" d="M1608 536h67v67h-67zM1675 536h67v67h-67zM1742 536h67v67h-67z"/><path fill="#4c4e720e" d="M1809 536h67v67h-67z"/><path fill="none" d="M1876 536h67v67h-67zM1943 536h67v67h-67zM0 603h67v67H0zM67 603h67v67H67z"/><path fill="#4c4e72cb" d="M134 603h67v67h-67z"/><path fill="#4c4e7298" d="M201 603h67v67h-67z"/><path fill="none" d="M268 603h67v67h-67zM335 603h67v67h-67zM402 603h67v67h-67zM469 603h67v67h-67zM536 603h67v67h-67zM603 603h67v67h-67zM670 603h67v67h-67z"/><path fill="#4c4e7253" d="M737 603h67v67h-67z"/><path fill="#4c4e7270" d="M804 603h67v67h-67z"/><path fill="none" d="M871 603h67v67h-67zM938 603h67v67h-67zM1005 603h67v67h-67z"/><path fill="#4c4e72a4" d="M1072 603h67v67h-67z"/><path fill="none" d="M1139 603h67v67h-67z"/><path fill="#4c4e7206" d="M1206 603h67v67h-67z"/><path fill="#4c4e722b" d="M1273 603h67v67h-67z"/><path fill="none" d="M1340 603h67v67h-67zM1407 603h67v67h-67zM1474 603h67v67h-67zM1541 603h67v67h-67zM1608 603h67v67h-67zM1675 603h67v67h-67z"/><path fill="#4c4e7281" d="M1742 603h67v67h-67z"/><path fill="none" d="M1809 603h67v67h-67zM1876 603h67v67h-67zM1943 603h67v67h-67zM0 670h67v67H0zM67 670h67v67H67z"/><path fill="#4c4e7295" d="M134 670h67v67h-67z"/><path fill="none" d="M201 670h67v67h-67z"/><path fill="#4c4e722e" d="M268 670h67v67h-67z"/><path fill="none" d="M335 670h67v67h-67z"/><path fill="#4c4e7245" d="M402 670h67v67h-67z"/><path fill="none" d="M469 670h67v67h-67zM536 670h67v67h-67z"/><path fill="#4c4e72d0" d="M603 670h67v67h-67z"/><path fill="none" d="M670 670h67v67h-67zM737 670h67v67h-67zM804 670h67v67h-67zM871 670h67v67h-67z"/><path fill="#4c4e724d" d="M938 670h67v67h-67z"/><path fill="none" d="M1005 670h67v67h-67zM1072 670h67v67h-67zM1139 670h67v67h-67zM1206 670h67v67h-67z"/><path fill="#4c4e72d0" d="M1273 670h67v67h-67z"/><path fill="none" d="M1340 670h67v67h-67zM1407 670h67v67h-67zM1474 670h67v67h-67zM1541 670h67v67h-67z"/><path fill="#4c4e72fe" d="M1608 670h67v67h-67z"/><path fill="none" d="M1675 670h67v67h-67zM1742 670h67v67h-67zM1809 670h67v67h-67zM1876 670h67v67h-67z"/><path fill="#4c4e7290" d="M1943 670h67v67h-67z"/><path fill="none" d="M0 737h67v67H0z"/><path fill="#4c4e723f" d="M67 737h67v67H67z"/><path fill="none" d="M134 737h67v67h-67zM201 737h67v67h-67zM268 737h67v67h-67zM335 737h67v67h-67z"/><path fill="#4c4e72ab" d="M402 737h67v67h-67z"/><path fill="#4c4e7296" d="M469 737h67v67h-67z"/><path fill="none" d="M536 737h67v67h-67zM603 737h67v67h-67z"/><path fill="#4c4e7299" d="M670 737h67v67h-67z"/><path fill="none" d="M737 737h67v67h-67zM804 737h67v67h-67zM871 737h67v67h-67zM938 737h67v67h-67z"/><path fill="#4c4e7239" d="M1005 737h67v67h-67z"/><path fill="#4c4e7251" d="M1072 737h67v67h-67z"/><path fill="#4c4e72ea" d="M1139 737h67v67h-67z"/><path fill="none" d="M1206 737h67v67h-67z"/><path fill="#4c4e72aa" d="M1273 737h67v67h-67z"/><path fill="none" d="M1340 737h67v67h-67zM1407 737h67v67h-67z"/><path fill="#4c4e7269" d="M1474 737h67v67h-67z"/><path fill="none" d="M1541 737h67v67h-67zM1608 737h67v67h-67zM1675 737h67v67h-67z"/><path fill="#4c4e72b2" d="M1742 737h67v67h-67z"/><path fill="none" d="M1809 737h67v67h-67zM1876 737h67v67h-67zM1943 737h67v67h-67zM0 804h67v67H0zM67 804h67v67H67zM134 804h67v67h-67zM201 804h67v67h-67zM268 804h67v67h-67z"/><path fill="#4c4e72f6" d="M335 804h67v67h-67z"/><path fill="none" d="M402 804h67v67h-67zM469 804h67v67h-67z"/><path fill="#4c4e7219" d="M536 804h67v67h-67z"/><path fill="none" d="M603 804h67v67h-67z"/><path fill="#4c4e726b" d="M670 804h67v67h-67z"/><path fill="none" d="M737 804h67v67h-67zM804 804h67v67h-67z"/><path fill="#4c4e72ef" d="M871 804h67v67h-67z"/><path fill="none" d="M938 804h67v67h-67z"/><path fill="#4c4e720e" d="M1005 804h67v67h-67z"/><path fill="none" d="M1072 804h67v67h-67zM1139 804h67v67h-67z"/><path fill="#4c4e727b" d="M1206 804h67v67h-67z"/><path fill="none" d="M1273 804h67v67h-67zM1340 804h67v67h-67z"/><path fill="#4c4e721c" d="M1407 804h67v67h-67z"/><path fill="none" d="M1474 804h67v67h-67zM1541 804h67v67h-67z"/><path fill="#4c4e72aa" d="M1608 804h67v67h-67z"/><path fill="none" d="M1675 804h67v67h-67z"/><path fill="#4c4e72e1" d="M1742 804h67v67h-67z"/><path fill="none" d="M1809 804h67v67h-67zM1876 804h67v67h-67zM1943 804h67v67h-67zM0 871h67v67H0z"/><path fill="#4c4e727b" d="M67 871h67v67H67z"/><path fill="none" d="M134 871h67v67h-67z"/><path fill="#4c4e727b" d="M201 871h67v67h-67z"/><path fill="#4c4e72e9" d="M268 871h67v67h-67z"/><path fill="none" d="M335 871h67v67h-67z"/><path fill="#4c4e721e" d="M402 871h67v67h-67z"/><path fill="none" d="M469 871h67v67h-67zM536 871h67v67h-67z"/><path fill="#4c4e72f7" d="M603 871h67v67h-67z"/><path fill="none" d="M670 871h67v67h-67z"/><path fill="#4c4e72ca" d="M737 871h67v67h-67z"/><path fill="#4c4e72c4" d="M804 871h67v67h-67z"/><path fill="none" d="M871 871h67v67h-67zM938 871h67v67h-67zM1005 871h67v67h-67z"/><path fill="#4c4e72e2" d="M1072 871h67v67h-67z"/><path fill="none" d="M1139 871h67v67h-67zM1206 871h67v67h-67zM1273 871h67v67h-67zM1340 871h67v67h-67z"/><path fill="#4c4e7201" d="M1407 871h67v67h-67z"/><path fill="none" d="M1474 871h67v67h-67zM1541 871h67v67h-67zM1608 871h67v67h-67z"/><path fill="#4c4e72ce" d="M1675 871h67v67h-67z"/><path fill="#4c4e729b" d="M1742 871h67v67h-67z"/><path fill="none" d="M1809 871h67v67h-67zM1876 871h67v67h-67z"/><path fill="#4c4e7270" d="M1943 871h67v67h-67z"/><path fill="none" d="M0 938h67v67H0zM67 938h67v67H67zM134 938h67v67h-67z"/><path fill="#4c4e7270" d="M201 938h67v67h-67z"/><path fill="#4c4e72da" d="M268 938h67v67h-67z"/><path fill="none" d="M335 938h67v67h-67z"/><path fill="#4c4e72e4" d="M402 938h67v67h-67z"/><path fill="#4c4e72b3" d="M469 938h67v67h-67z"/><path fill="none" d="M536 938h67v67h-67z"/><path fill="#4c4e72f7" d="M603 938h67v67h-67z"/><path fill="none" d="M670 938h67v67h-67z"/><path fill="#4c4e72c4" d="M737 938h67v67h-67z"/><path fill="none" d="M804 938h67v67h-67zM871 938h67v67h-67zM938 938h67v67h-67zM1005 938h67v67h-67zM1072 938h67v67h-67zM1139 938h67v67h-67z"/><path fill="#4c4e7297" d="M1206 938h67v67h-67z"/><path fill="#4c4e72b3" d="M1273 938h67v67h-67z"/><path fill="none" d="M1340 938h67v67h-67zM1407 938h67v67h-67zM1474 938h67v67h-67z"/><path fill="#4c4e724a" d="M1541 938h67v67h-67z"/><path fill="none" d="M1608 938h67v67h-67zM1675 938h67v67h-67zM1742 938h67v67h-67zM1809 938h67v67h-67z"/><path fill="#4c4e72b1" d="M1876 938h67v67h-67z"/><path fill="none" d="M1943 938h67v67h-67z"/><path fill="#4c4e724b" d="M0 1005h67v67H0z"/><path fill="#4c4e7266" d="M67 1005h67v67H67z"/><path fill="#4c4e7219" d="M134 1005h67v67h-67z"/><path fill="#4c4e7215" d="M201 1005h67v67h-67z"/><path fill="#4c4e7265" d="M268 1005h67v67h-67z"/><path fill="none" d="M335 1005h67v67h-67zM402 1005h67v67h-67zM469 1005h67v67h-67zM536 1005h67v67h-67zM603 1005h67v67h-67zM670 1005h67v67h-67zM737 1005h67v67h-67zM804 1005h67v67h-67zM871 1005h67v67h-67z"/><path fill="#4c4e72db" d="M938 1005h67v67h-67z"/><path fill="none" d="M1005 1005h67v67h-67zM1072 1005h67v67h-67z"/><path fill="#4c4e7220" d="M1139 1005h67v67h-67z"/><path fill="none" d="M1206 1005h67v67h-67zM1273 1005h67v67h-67zM1340 1005h67v67h-67z"/><path fill="#4c4e7209" d="M1407 1005h67v67h-67z"/><path fill="#4c4e7296" d="M1474 1005h67v67h-67z"/><path fill="none" d="M1541 1005h67v67h-67z"/><path fill="#4c4e72a4" d="M1608 1005h67v67h-67z"/><path fill="none" d="M1675 1005h67v67h-67zM1742 1005h67v67h-67z"/><path fill="#4c4e72d9" d="M1809 1005h67v67h-67z"/><path fill="none" d="M1876 1005h67v67h-67zM1943 1005h67v67h-67z"/><path fill="#4c4e7235" d="M0 1072h67v67H0z"/><path fill="none" d="M67 1072h67v67H67z"/><path fill="#4c4e72b4" d="M134 1072h67v67h-67z"/><path fill="#4c4e728e" d="M201 1072h67v67h-67z"/><path fill="none" d="M268 1072h67v67h-67zM335 1072h67v67h-67zM402 1072h67v67h-67zM469 1072h67v67h-67z"/><path fill="#4c4e72c8" d="M536 1072h67v67h-67z"/><path fill="none" d="M603 1072h67v67h-67zM670 1072h67v67h-67z"/><path fill="#4c4e725a" d="M737 1072h67v67h-67z"/><path fill="none" d="M804 1072h67v67h-67zM871 1072h67v67h-67zM938 1072h67v67h-67zM1005 1072h67v67h-67zM1072 1072h67v67h-67zM1139 1072h67v67h-67zM1206 1072h67v67h-67zM1273 1072h67v67h-67zM1340 1072h67v67h-67zM1407 1072h67v67h-67zM1474 1072h67v67h-67zM1541 1072h67v67h-67zM1608 1072h67v67h-67zM1675 1072h67v67h-67z"/><path fill="#4c4e72f3" d="M1742 1072h67v67h-67z"/><path fill="#4c4e72d9" d="M1809 1072h67v67h-67z"/><path fill="none" d="M1876 1072h67v67h-67zM1943 1072h67v67h-67zM0 1139h67v67H0zM67 1139h67v67H67zM134 1139h67v67h-67zM201 1139h67v67h-67z"/><path fill="#4c4e7217" d="M268 1139h67v67h-67z"/><path fill="none" d="M335 1139h67v67h-67zM402 1139h67v67h-67z"/><path fill="#4c4e7210" d="M469 1139h67v67h-67z"/><path fill="none" d="M536 1139h67v67h-67zM603 1139h67v67h-67zM670 1139h67v67h-67zM737 1139h67v67h-67z"/><path fill="#4c4e7257" d="M804 1139h67v67h-67z"/><path fill="#4c4e7249" d="M871 1139h67v67h-67z"/><path fill="none" d="M938 1139h67v67h-67z"/><path fill="#4c4e72a8" d="M1005 1139h67v67h-67z"/><path fill="none" d="M1072 1139h67v67h-67z"/><path fill="#4c4e7228" d="M1139 1139h67v67h-67z"/><path fill="#4c4e7216" d="M1206 1139h67v67h-67z"/><path fill="none" d="M1273 1139h67v67h-67zM1340 1139h67v67h-67zM1407 1139h67v67h-67zM1474 1139h67v67h-67zM1541 1139h67v67h-67zM1608 1139h67v67h-67zM1675 1139h67v67h-67zM1742 1139h67v67h-67zM1809 1139h67v67h-67zM1876 1139h67v67h-67zM1943 1139h67v67h-67zM0 1206h67v67H0zM67 1206h67v67H67zM134 1206h67v67h-67zM201 1206h67v67h-67z"/><path fill="#4c4e72b9" d="M268 1206h67v67h-67z"/><path fill="none" d="M335 1206h67v67h-67z"/><path fill="#4c4e72e8" d="M402 1206h67v67h-67z"/><path fill="none" d="M469 1206h67v67h-67zM536 1206h67v67h-67z"/><path fill="#4c4e72b6" d="M603 1206h67v67h-67z"/><path fill="#4c4e7221" d="M670 1206h67v67h-67z"/><path fill="#4c4e7228" d="M737 1206h67v67h-67z"/><path fill="none" d="M804 1206h67v67h-67z"/><path fill="#4c4e72b5" d="M871 1206h67v67h-67z"/><path fill="#4c4e7279" d="M938 1206h67v67h-67z"/><path fill="none" d="M1005 1206h67v67h-67zM1072 1206h67v67h-67z"/><path fill="#4c4e727f" d="M1139 1206h67v67h-67z"/><path fill="#4c4e72ee" d="M1206 1206h67v67h-67z"/><path fill="#4c4e72c0" d="M1273 1206h67v67h-67z"/><path fill="none" d="M1340 1206h67v67h-67zM1407 1206h67v67h-67zM1474 1206h67v67h-67zM1541 1206h67v67h-67zM1608 1206h67v67h-67zM1675 1206h67v67h-67zM1742 1206h67v67h-67zM1809 1206h67v67h-67z"/><path fill="#4c4e72cd" d="M1876 1206h67v67h-67z"/><path fill="none" d="M1943 1206h67v67h-67zM0 1273h67v67H0zM67 1273h67v67H67zM134 1273h67v67h-67zM201 1273h67v67h-67zM268 1273h67v67h-67zM335 1273h67v67h-67zM402 1273h67v67h-67zM469 1273h67v67h-67zM536 1273h67v67h-67zM603 1273h67v67h-67zM670 1273h67v67h-67zM737 1273h67v67h-67zM804 1273h67v67h-67z"/><path fill="#4c4e7239" d="M871 1273h67v67h-67z"/><path fill="none" d="M938 1273h67v67h-67zM1005 1273h67v67h-67z"/><path fill="#4c4e7299" d="M1072 1273h67v67h-67z"/><path fill="none" d="M1139 1273h67v67h-67zM1206 1273h67v67h-67zM1273 1273h67v67h-67zM1340 1273h67v67h-67zM1407 1273h67v67h-67zM1474 1273h67v67h-67z"/><path fill="#4c4e7224" d="M1541 1273h67v67h-67z"/><path fill="none" d="M1608 1273h67v67h-67zM1675 1273h67v67h-67zM1742 1273h67v67h-67z"/><path fill="#4c4e722d" d="M1809 1273h67v67h-67z"/><path fill="#4c4e728e" d="M1876 1273h67v67h-67z"/><path fill="none" d="M1943 1273h67v67h-67zM0 1340h67v67H0zM67 1340h67v67H67zM134 1340h67v67h-67zM201 1340h67v67h-67zM268 1340h67v67h-67zM335 1340h67v67h-67zM402 1340h67v67h-67zM469 1340h67v67h-67zM536 1340h67v67h-67zM603 1340h67v67h-67zM670 1340h67v67h-67z"/><path fill="#4c4e72c7" d="M737 1340h67v67h-67z"/><path fill="none" d="M804 1340h67v67h-67zM871 1340h67v67h-67zM938 1340h67v67h-67zM1005 1340h67v67h-67zM1072 1340h67v67h-67zM1139 1340h67v67h-67zM1206 1340h67v67h-67zM1273 1340h67v67h-67zM1340 1340h67v67h-67z"/><path fill="#4c4e7281" d="M1407 1340h67v67h-67z"/><path fill="#4c4e721e" d="M1474 1340h67v67h-67z"/><path fill="none" d="M1541 1340h67v67h-67zM1608 1340h67v67h-67z"/><path fill="#4c4e72a7" d="M1675 1340h67v67h-67z"/><path fill="none" d="M1742 1340h67v67h-67zM1809 1340h67v67h-67zM1876 1340h67v67h-67zM1943 1340h67v67h-67z"/></g><defs><radialGradient id="a"><stop offset="0" stop-color="#fff"/><stop offset="1" stop-color="#fff"/></radialGradient></defs></svg>